<svg width="80" height="21" viewBox="0 0 80 21" fill="none" xmlns="http://www.w3.org/2000/svg">
<g clip-path="url(#clip0_1_37)">
<path d="M71.1257 1.1554L79.4112 9.19973C80.1963 9.96194 80.1963 11.1977 79.4112 11.9599L71.1257 20.0042C69.8592 21.2338 67.6939 20.363 67.6939 18.6241V2.5355C67.6939 0.796674 69.8592 -0.0741359 71.1257 1.1554Z" fill="#F8CC46"/>
<path d="M44.8116 9.19973L36.526 1.1554C35.2596 -0.0741361 33.0942 0.796674 33.0942 2.53551V18.6241C33.0942 20.363 35.2596 21.2338 36.526 20.0042L44.8116 11.9599C45.5966 11.1977 45.5966 9.96194 44.8116 9.19973Z" fill="#F8CC46"/>
<path d="M11.7173 9.19973L3.43178 1.1554C2.16537 -0.074136 6.07087e-06 0.796674 6.22288e-06 2.53551L0 18.6241C1.52013e-07 20.363 2.16537 21.2338 3.43178 20.0042L11.7173 11.9599C12.5024 11.1977 12.5024 9.96194 11.7173 9.19973Z" fill="#F8CC46"/>
</g>
<defs>
<clipPath id="clip0_1_37">
<rect width="80" height="20" fill="white" transform="translate(0 0.579834)"/>
</clipPath>
</defs>
</svg>
