<svg width="378" height="92" viewBox="0 0 378 92" fill="none" xmlns="http://www.w3.org/2000/svg">
<path d="M31.6324 1.13345C42.3139 -1.6711 54.3207 0.776997 62.846 7.94359C56.2355 9.09324 49.714 11.0725 43.798 14.3084C38.4451 17.2275 33.5971 21.2074 30.0224 26.2117C25.9641 31.8454 23.4014 38.7144 23.4491 45.7344C23.4512 54.3225 28.0208 62.8475 35.3161 67.308C38.4906 69.2455 42.2123 70.2849 45.9267 70.1307C52.1941 69.8995 58.2203 66.6711 62.1273 61.7428C66.2343 56.5469 67.8835 49.619 67.1541 43.0625C66.5603 37.295 63.968 31.7416 59.825 27.7167C56.5182 24.4583 52.1042 22.2104 47.4403 22.0595C52.8218 17.174 59.4291 13.6811 66.4735 12.0284C66.5042 8.83098 66.5254 5.63251 66.5455 2.43297C73.9731 2.43618 81.4007 2.42226 88.8283 2.44795C88.8283 31.5007 88.8283 60.5514 88.8283 89.602C81.4039 89.5785 73.9805 89.5988 66.5561 89.5913C66.5762 86.4592 66.5974 83.3271 66.6259 80.1971C62.6332 84.6598 57.5216 88.0841 51.9009 90.0655C46.1574 92.1261 39.8719 92.5307 33.8987 91.3254C29.906 90.5397 26.0456 89.1096 22.4498 87.1882C19.8226 85.7998 17.3435 84.116 15.1333 82.1154C10.6399 78.0584 7.16483 72.9321 4.67097 67.4075C1.89554 61.2268 0.279182 54.5013 0.0314893 47.7147C-0.25431 39.4102 1.40439 31.0094 5.04674 23.5474C7.35219 18.8064 10.4918 14.4765 14.3183 10.8766C19.1896 6.2737 25.1586 2.81083 31.6324 1.13345Z" fill="white"/>
<path d="M320.321 1.13345C331.003 -1.6711 343.009 0.776998 351.534 7.9436C344.924 9.09325 338.403 11.0725 332.487 14.3084C327.134 17.2275 322.286 21.2074 318.711 26.2117C314.653 31.8455 312.09 38.7145 312.138 45.7344C312.14 54.3226 316.709 62.8476 324.005 67.3081C327.179 69.2456 330.901 70.285 334.615 70.1308C340.883 69.8996 346.909 66.6712 350.816 61.7429C354.923 56.5469 356.572 49.6191 355.843 43.0626C355.249 37.2951 352.656 31.7416 348.513 27.7168C345.207 24.4584 340.793 22.2104 336.129 22.0595C341.51 17.174 348.118 13.6812 355.162 12.0284C355.193 8.83099 355.214 5.63252 355.234 2.43297C362.661 2.43618 370.089 2.42226 377.517 2.44796C377.517 31.5008 377.517 60.5515 377.517 89.6021C370.092 89.5786 362.669 89.5989 355.244 89.5914C355.265 86.4593 355.286 83.3272 355.314 80.1973C351.322 84.6599 346.21 88.0843 340.589 90.0656C334.846 92.1262 328.561 92.5309 322.587 91.3256C318.595 90.5399 314.734 89.1097 311.139 87.1883C308.511 85.7999 306.032 84.1161 303.822 82.1155C299.329 78.0585 295.854 72.9322 293.36 67.4076C290.584 61.2269 288.968 54.5013 288.72 47.7147C288.435 39.4103 290.093 31.0094 293.736 23.5474C296.041 18.8064 299.181 14.4765 303.007 10.8766C307.878 6.27371 313.847 2.81083 320.321 1.13345Z" fill="white"/>
<path d="M141.488 0.17974C142.364 -0.34396 143.385 0.346149 143.352 1.35439C143.448 8.58831 143.27 15.8271 143.26 23.061C143.376 24.0008 142.09 24.3923 141.599 23.6435C140.269 21.7836 140.091 19.4049 139.234 17.3248C137.346 12.7143 134.49 8.27996 130.343 5.47058C123.875 1.75084 114.349 2.42627 109.427 8.47084C105.439 13.7519 106.465 21.8325 111.252 26.2571C119.825 34.3916 131.152 38.5567 140.12 46.1919C149.107 53.186 151.125 66.4792 147.2 76.8162C144.199 84.0697 137.866 89.8353 130.416 91.9986C137.307 87.1385 139.239 76.5861 134.119 69.7242C132.968 68.2852 131.817 66.8022 130.314 65.7255C122.117 59.5879 112.394 55.736 104.837 48.6881C98.6917 43.3679 95.0555 35.2236 95.2193 27.0157C94.6606 18.1813 99.2166 9.42036 106.499 4.63853C114.113 -0.417376 124.126 -0.931288 132.506 2.42137C134.606 3.07233 136.532 4.51128 138.786 4.50149C140.765 4.00716 140.491 1.50612 141.488 0.17974Z" fill="white"/>
<path d="M159.227 24.4852C170.82 16.3787 182.43 8.30177 193.892 0C194.035 30.6509 194.345 61.3017 194.519 91.9526C187.752 92.207 180.848 91.4496 174.565 88.8283C167.81 86.4141 161.718 81.1656 159.604 74.2189C158.971 72.0295 158.899 69.7337 158.929 67.4733C158.833 53.3727 158.726 39.2722 158.624 25.1716C158.57 24.8047 159 24.6805 159.227 24.4852Z" fill="white"/>
<path fill-rule="evenodd" clip-rule="evenodd" d="M251.531 37.17C248.974 34.556 247.017 31.3187 245.865 27.2002C244.661 22.891 244.82 17.6652 246.24 13.5432C247.531 9.79569 249.855 6.74445 252.654 4.43862C255.59 2.01978 258.918 0.454776 263.452 0.0598165C267.447 -0.289483 271.148 0.942198 273.767 2.42158C276.532 3.9843 278.653 6.14859 280.448 8.58798C282.258 11.0456 283.62 14.2612 284.243 17.865C284.916 21.7609 284.301 26.134 283.068 29.3907C281.248 34.1907 278.713 37.831 274.569 40.2818C273.224 41.0774 271.669 41.8228 270.187 42.2406C266.802 43.196 262.693 43.131 259.389 42.01C256.311 40.9667 253.855 39.2499 251.531 37.17Z" fill="white"/>
<path fill-rule="evenodd" clip-rule="evenodd" d="M251.638 0.29C251.706 0.746601 251.187 0.955496 250.943 1.0959C247.22 3.25448 244.669 5.92331 242.819 10.2587C242.179 11.761 241.576 13.3522 241.323 15.1569C240.764 19.1271 241.163 23.4739 241.162 27.8915C241.161 36.5475 241.216 45.0083 241.215 53.5342C241.215 55.6574 241.147 57.7909 241.215 59.9312C241.283 62.0487 241.137 64.1993 241.215 66.3282C241.375 70.643 241.287 74.9728 241.323 79.2363C241.357 83.4838 241.309 87.6822 241.215 91.7985C239.829 92.1067 238.389 91.9709 236.939 91.9709C226.814 91.972 216.258 92.0622 206.526 91.9138C206.24 90.8214 206.367 89.6548 206.367 88.5133C206.367 71.7309 206.207 53.2009 206.207 36.5361C206.207 31.784 206.207 27.0959 206.207 22.3598C206.207 19.9101 206.178 17.602 206.473 15.5599C207.315 9.7462 210.814 5.69958 214.652 3.11293C216.774 1.68149 219.006 0.840204 221.974 0.347075C224.999 -0.155185 228.613 0.174709 231.916 0.174709C234.096 0.174709 236.286 0.261463 238.437 0.174709C241.709 0.0422945 245.125 0.117634 248.432 0.117634C249.498 0.117634 250.596 -0.0227711 251.638 0.29Z" fill="white"/>
</svg>
