<svg width="86" height="86" viewBox="0 0 86 86" fill="none" xmlns="http://www.w3.org/2000/svg">
<mask id="mask0_1_412" style="mask-type:luminance" maskUnits="userSpaceOnUse" x="0" y="0" width="86" height="86">
<path d="M85.5 0.560059H0.5V85.5601H85.5V0.560059Z" fill="white"/>
</mask>
<g mask="url(#mask0_1_412)">
<path d="M36.5254 61.1557C37.4417 61.1557 38.1855 60.412 38.1855 59.4956C38.1855 58.5793 37.4417 57.8354 36.5254 57.8354C35.6091 57.8354 34.8652 58.5793 34.8652 59.4956C34.8652 60.412 35.6091 61.1557 36.5254 61.1557Z" fill="#F8CC46"/>
<path d="M1.15239 64.9859L21.0742 84.9078C21.7228 85.5562 22.7734 85.5562 23.4219 84.9078L34.3789 73.9507C35.0274 73.3022 35.0274 72.2517 34.3789 71.6031L33.8925 71.1168H57.8235C59.9252 71.1168 61.9311 70.3288 63.4777 68.8931L83.6182 50.0172C85.5461 48.2267 86.1849 45.3824 85.207 42.9401C84.5001 41.1724 83.0566 39.8196 81.2472 39.2288C79.4373 38.6367 77.4743 38.8767 75.8595 39.8857C75.8491 39.8922 71.3881 42.8195 71.3881 42.8195C71.3576 33.8203 65.9187 24.2238 58.4318 19.9035C58.8591 19.4126 59.195 18.8315 59.4091 18.1811C60.2657 15.5748 58.8416 12.7538 56.2314 11.8919C56.1497 11.8647 56.068 11.8407 55.9863 11.8154L60.2599 4.13848C60.5057 3.69685 60.5374 3.16703 60.3449 2.70011C60.1528 2.23254 59.7586 1.87781 59.2728 1.73708C56.2086 0.846047 53.0239 0.394043 49.8067 0.394043C46.5901 0.394043 43.4047 0.846047 40.3405 1.73643C39.8548 1.87781 39.4605 2.23189 39.268 2.69946C39.076 3.16703 39.1071 3.69685 39.3535 4.13848L43.6272 11.8154C43.5442 11.8414 43.4612 11.866 43.3782 11.8932C40.7718 12.7538 39.3484 15.5741 40.2051 18.1824C40.419 18.8315 40.7576 19.4106 41.1862 19.9022C33.5877 24.2867 28.2247 33.9818 28.2247 42.8941C28.2247 43.1373 28.2305 43.3772 28.2383 43.6152C25.2649 44.4265 22.5003 45.9044 20.1755 47.9401L15.1301 52.3544L14.457 51.6812C13.8085 51.0328 12.758 51.0328 12.1094 51.6812L1.15239 62.6383C0.503891 63.2868 0.503891 64.3374 1.15239 64.9859ZM43.3042 4.4089C45.4313 3.94717 47.6102 3.71436 49.8067 3.71436C52.0031 3.71436 54.1821 3.94717 56.3099 4.4089L52.6102 11.0541C50.7451 10.7941 48.867 10.7941 47.0039 11.0541L43.3042 4.4089ZM44.4145 15.0475C47.821 13.9327 51.535 13.8484 55.1945 15.0462C56.0654 15.3335 56.5408 16.2752 56.2547 17.1442C56.0394 17.7985 55.4558 18.2427 54.7794 18.2822C51.5058 17.2414 48.1057 17.2395 44.8334 18.279C44.1512 18.2362 43.5714 17.7901 43.3587 17.1448C43.0727 16.2745 43.5481 15.3329 44.4145 15.0475ZM45.3327 21.6136C48.2114 20.5766 51.1938 20.552 54.0797 21.5435C61.7929 24.196 68.0684 33.7736 68.0684 42.8941C68.0684 43.6671 68.0198 44.4038 67.9238 45.0925L59.9441 50.3278C58.7087 48.7974 56.8364 47.8745 54.7872 47.8745H51.4669V45.9291C53.3994 45.2436 54.7872 43.398 54.7872 41.2339C54.7872 38.4876 52.5531 36.2535 49.8067 36.2535C48.8917 36.2535 48.1466 35.509 48.1466 34.5933C48.1466 33.6776 48.8917 32.9332 49.8067 32.9332C50.3949 32.9332 51.0155 33.2334 51.6024 33.8009C52.2613 34.4383 53.3125 34.4208 53.95 33.7626C54.5874 33.1037 54.57 32.0525 53.9111 31.415C53.0687 30.5992 52.2256 30.1381 51.4669 29.8865V27.9527C51.4669 27.0357 50.7237 26.2925 49.8067 26.2925C48.8897 26.2925 48.1466 27.0357 48.1466 27.9527V29.8982C46.2146 30.5836 44.8262 32.4292 44.8262 34.5933C44.8262 37.3397 47.0603 39.5738 49.8067 39.5738C50.7224 39.5738 51.4669 40.3183 51.4669 41.2339C51.4669 42.1496 50.7224 42.8941 49.8067 42.8941C49.0973 42.8941 48.332 42.448 47.6511 41.638C47.0609 40.9363 46.0136 40.8455 45.312 41.4356C44.6103 42.0257 44.5195 43.0731 45.1096 43.7748C45.9968 44.8305 47.0409 45.5659 48.1466 45.9369V47.8745H47.594C46.7783 47.8745 46.4118 47.3428 45.8373 46.9712C42.3295 44.3422 37.9846 42.8941 33.602 42.8941C32.9166 42.8941 32.2298 42.9298 31.5462 42.9992C31.5462 42.9641 31.5449 42.9298 31.5449 42.8941C31.5449 33.9014 37.7303 24.3555 45.3327 21.6136ZM22.3622 50.4381C25.4815 47.7066 29.4899 46.2144 33.602 46.2144C37.2712 46.2144 40.9087 47.4265 43.8438 49.6268C44.2672 49.8745 45.4462 51.1949 47.5934 51.1949H54.7872C56.6769 51.1949 58.1075 52.7312 58.1075 54.5152C58.1075 56.3459 56.6179 57.8355 54.7872 57.8355H43.1661C42.2491 57.8355 41.5059 58.5787 41.5059 59.4957C41.5059 60.4126 42.2491 61.1559 43.1661 61.1559H54.7872C58.4486 61.1559 61.4278 58.1766 61.4278 54.5152C61.4278 54.1345 61.3941 53.759 61.3305 53.3894L77.6332 42.6931C78.4087 42.2138 79.3497 42.1016 80.2161 42.3844C81.0877 42.6698 81.7836 43.3215 82.124 44.1736C82.6032 45.3695 82.3024 46.7086 81.353 47.5899L61.2132 66.4651C60.2884 67.3237 59.0848 67.7964 57.8235 67.7964H30.5722L17.4835 54.7071L22.3622 50.4381ZM13.2832 55.2027L30.8576 72.7769L22.2481 81.3864L4.67374 63.8121L13.2832 55.2027Z" fill="#F8CC46"/>
</g>
</svg>
