<svg width="86" height="86" viewBox="0 0 86 86" fill="none" xmlns="http://www.w3.org/2000/svg">
<mask id="mask0_1_433" style="mask-type:luminance" maskUnits="userSpaceOnUse" x="0" y="0" width="86" height="86">
<path d="M85.5 0.560059H0.5V85.5601H85.5V0.560059Z" fill="white"/>
</mask>
<g mask="url(#mask0_1_433)">
<mask id="mask1_1_433" style="mask-type:luminance" maskUnits="userSpaceOnUse" x="-14" y="-14" width="114" height="114">
<path d="M99.6727 99.7163H-13.6605V-13.6169H99.6727V99.7163Z" fill="white"/>
</mask>
<g mask="url(#mask1_1_433)">
<path d="M36.3219 85.5543C26.8262 85.5543 17.9116 81.8688 11.1883 75.1787C4.48163 68.4887 0.779663 59.5906 0.779663 50.1282C0.779663 41.363 4.01681 32.963 9.89351 26.4555C15.7037 19.9978 23.6721 15.9141 32.2879 14.9512C33.2009 14.835 34.0144 15.499 34.114 16.412C34.2302 17.3251 33.5662 18.1385 32.6531 18.2381C24.8341 19.118 17.6294 22.82 12.3504 28.68C7.02155 34.5733 4.09982 42.193 4.09982 50.1282C4.09982 58.6942 7.45316 66.7622 13.529 72.8214C19.6215 78.8807 27.7061 82.2175 36.3219 82.2175C44.9211 82.2175 53.0223 78.8807 59.1147 72.8214C65.1905 66.7622 68.5439 58.6942 68.5439 50.1282C68.5439 46.6587 67.9961 43.2721 66.917 40.0349C64.7755 40.9978 62.4515 41.5124 60.0942 41.5124C51.0135 41.5124 43.6262 34.1416 43.6262 25.0943C43.6262 22.3718 44.3069 19.6824 45.5851 17.3085C46.0167 16.4951 47.0294 16.1962 47.8428 16.6445C48.6562 17.0761 48.9551 18.0888 48.5069 18.9022C47.4776 20.7947 46.9463 22.9362 46.9463 25.1108C46.9463 32.3322 52.8396 38.2088 60.0942 38.2088C62.5345 38.2088 64.9084 37.5449 66.9669 36.2831C67.3819 36.0342 67.8965 35.9677 68.3613 36.1172C68.8262 36.2666 69.1914 36.6152 69.3739 37.08C71.034 41.2468 71.8641 45.6294 71.8641 50.1448C71.8641 59.6072 68.1621 68.5052 61.4554 75.1953C54.7321 81.8688 45.8009 85.5543 36.3219 85.5543Z" fill="#F8CC46"/>
<path d="M60.0844 41.5169C51.0039 41.5169 43.6165 34.1462 43.6165 25.0988C43.6165 16.0514 51.0039 8.68066 60.0844 8.68066C69.1651 8.68066 76.5524 16.0514 76.5524 25.0988C76.5524 34.1462 69.1651 41.5169 60.0844 41.5169ZM60.0844 12.0008C52.83 12.0008 46.9367 17.8775 46.9367 25.0988C46.9367 32.3201 52.83 38.1968 60.0844 38.1968C67.339 38.1968 73.2323 32.3201 73.2323 25.0988C73.2323 17.8775 67.339 12.0008 60.0844 12.0008Z" fill="#F8CC46"/>
<path d="M54.9176 31.8757C54.4859 31.8757 54.0543 31.7097 53.7389 31.3777C53.0915 30.7303 53.1081 29.6678 53.7555 29.037L58.4203 24.4054V17.7651C58.4203 16.8521 59.1674 16.105 60.0804 16.105C60.9935 16.105 61.7405 16.8521 61.7405 17.7651V25.1026C61.7405 25.5509 61.5578 25.9659 61.2424 26.2813L56.0796 31.3943C55.7476 31.7097 55.3326 31.8757 54.9176 31.8757Z" fill="#F8CC46"/>
<path d="M36.632 77.458C35.055 77.458 33.478 77.3251 31.9341 77.0596C31.0376 76.9101 30.4234 76.0469 30.5894 75.1339C30.7554 74.2208 31.602 73.6232 32.5151 73.7892C33.8764 74.0216 35.2708 74.1378 36.6487 74.1378C49.8795 74.1378 60.6534 63.3639 60.6534 50.1332C60.6534 47.145 60.1056 44.2398 59.0431 41.4842C51.191 40.9862 44.7499 34.9767 43.7538 27.2075C41.4629 26.4937 39.0724 26.1451 36.6487 26.1451C23.4178 26.1451 12.644 36.919 12.644 50.1497C12.644 53.5529 13.3412 56.8565 14.719 59.9442C16.0471 62.9323 17.9562 65.5719 20.3634 67.7963C21.0439 68.4105 21.0772 69.473 20.463 70.137C19.8488 70.8177 18.7863 70.8509 18.1223 70.2366C15.3831 67.6967 13.225 64.692 11.6977 61.3055C10.1207 57.7861 9.32385 54.0343 9.32385 50.1663C9.32385 42.862 12.1626 36.0059 17.3254 30.8431C22.4882 25.6802 29.3443 22.8416 36.6487 22.8416C39.8195 22.8416 42.9072 23.3728 45.8621 24.4352C46.493 24.6676 46.9246 25.232 46.9577 25.896C47.3562 32.802 53.1332 38.2138 60.0889 38.2138C60.7696 38.1806 61.417 38.579 61.6826 39.2098C63.1933 42.6628 63.9735 46.3482 63.9735 50.1497C63.9735 57.454 61.1348 64.3102 55.9719 69.473C50.7925 74.6193 43.9364 77.458 36.632 77.458ZM60.0557 38.1972H60.0391C60.0391 38.1972 60.0391 38.1972 60.0557 38.1972Z" fill="#F8CC46"/>
<path d="M38.2994 66.0888H30.7627C29.8496 66.0888 29.1026 65.3417 29.1026 64.4288C29.1026 63.5157 29.8496 62.7686 30.7627 62.7686H38.2994C41.2211 62.7686 43.595 60.3947 43.595 57.473V57.1244C43.6117 54.1861 41.2211 51.8121 38.2994 51.8121H34.9626C30.2149 51.8121 26.3469 47.9442 26.3469 43.1797C26.3469 38.432 30.2149 34.564 34.9626 34.564H42.4496C43.3626 34.564 44.1097 35.311 44.1097 36.224C44.1097 37.1371 43.3626 37.8841 42.4496 37.8841H34.9626C32.041 37.8841 29.6671 40.2581 29.6671 43.1797C29.6671 46.1015 32.041 48.4754 34.9626 48.4754H38.2994C43.0638 48.492 46.9318 52.36 46.9318 57.1078V57.4564C46.9318 62.2208 43.0638 66.0888 38.2994 66.0888Z" fill="#F8CC46"/>
<path d="M36.3819 37.882C35.4688 37.882 34.7218 37.135 34.7218 36.2219V31.2085C34.7218 30.2954 35.4688 29.5483 36.3819 29.5483C37.2949 29.5483 38.0419 30.2954 38.0419 31.2085V36.2219C38.0419 37.135 37.2949 37.882 36.3819 37.882Z" fill="#F8CC46"/>
<path d="M36.3819 71.1951C35.4688 71.1951 34.7218 70.4481 34.7218 69.5351V64.422C34.7218 63.509 35.4688 62.762 36.3819 62.762C37.2949 62.762 38.0419 63.509 38.0419 64.422V69.5351C38.0419 70.4481 37.2949 71.1951 36.3819 71.1951Z" fill="#F8CC46"/>
<path d="M25.3435 74.843C25.2936 74.843 25.2273 74.843 25.1774 74.843C25.1277 74.843 25.0778 74.8265 25.0115 74.8099C24.9119 74.7933 24.7957 74.7601 24.6961 74.7103C24.613 74.6771 24.5134 74.6273 24.4138 74.5609C24.364 74.5276 24.3308 74.4945 24.2811 74.4613C24.2312 74.428 24.198 74.3949 24.1648 74.3451C24.1316 74.3118 24.0818 74.2621 24.0486 74.2289C24.0154 74.1957 23.9822 74.1459 23.949 74.096C23.8992 74.013 23.8494 73.9134 23.8162 73.8138C23.7664 73.7142 23.7332 73.6147 23.7166 73.5151C23.7 73.4652 23.7 73.3988 23.7 73.349C23.7 73.2992 23.6834 73.2328 23.6834 73.183C23.6834 73.1332 23.6834 73.0668 23.7 73.017C23.7166 72.9672 23.7166 72.9008 23.7166 72.851C23.7332 72.7514 23.7664 72.6352 23.8162 72.5356C23.8494 72.4526 23.8992 72.353 23.9656 72.2534C23.9988 72.2036 24.032 72.1703 24.0652 72.1206C24.0984 72.0707 24.1316 72.0376 24.1814 72.0044C24.2146 71.9711 24.2644 71.938 24.2976 71.8882C24.3474 71.8549 24.3807 71.8218 24.4304 71.7886C24.5134 71.7387 24.613 71.689 24.7127 71.6557C24.8123 71.606 24.9119 71.5728 25.0115 71.5561C25.0612 71.5395 25.1111 71.5395 25.1774 71.5229C25.2936 71.5064 25.3932 71.5064 25.5095 71.5229C25.5593 71.5229 25.6091 71.5395 25.6755 71.5561C25.7751 71.5728 25.8913 71.606 25.9909 71.6557C26.0739 71.689 26.1735 71.7387 26.2731 71.8052C26.3229 71.8383 26.3561 71.8715 26.4059 71.9048C26.4557 71.938 26.4889 71.9711 26.5221 72.021C26.5553 72.0541 26.6051 72.104 26.6384 72.1372C26.6715 72.1703 26.7047 72.2202 26.738 72.2699C26.7877 72.353 26.8376 72.4526 26.8707 72.5522C26.9205 72.6518 26.9538 72.7514 26.9704 72.851C26.9869 72.9008 26.9869 72.9672 26.9869 73.017C27.0035 73.0668 27.0035 73.1332 27.0035 73.183C27.0035 73.2328 27.0035 73.2992 26.9869 73.349C26.9869 73.3988 26.9704 73.4652 26.9704 73.5151C26.9538 73.6147 26.9205 73.7142 26.8707 73.8138C26.8376 73.9134 26.7877 74.013 26.7213 74.096C26.6881 74.1459 26.6549 74.1957 26.6217 74.2289C26.5885 74.2787 26.5553 74.3118 26.5221 74.3617C26.4723 74.3949 26.4391 74.428 26.3893 74.4613C26.3561 74.4945 26.3063 74.5276 26.2731 74.5609C26.1735 74.6273 26.0739 74.6771 25.9743 74.7103C25.8747 74.7601 25.7751 74.7933 25.6755 74.8099C25.6091 74.8265 25.5593 74.8265 25.5095 74.843C25.4597 74.843 25.3932 74.843 25.3435 74.843Z" fill="#F8CC46"/>
<path d="M39.9214 18.2288C39.8716 18.2288 39.8052 18.2288 39.7554 18.2288C39.7055 18.2288 39.6392 18.2122 39.5894 18.1956C39.4897 18.179 39.3736 18.1458 39.2739 18.096C39.1909 18.0629 39.0913 18.013 38.9917 17.9466C38.9419 17.9134 38.9087 17.8802 38.8589 17.847C38.8091 17.8138 38.7759 17.7806 38.7427 17.7308C38.7095 17.6976 38.6597 17.6478 38.6265 17.6146C38.5933 17.5814 38.5601 17.5316 38.5269 17.4818C38.4771 17.3988 38.4273 17.2992 38.3941 17.1996C38.3443 17.1 38.3111 17.0004 38.2945 16.9007C38.2779 16.8344 38.2779 16.7846 38.2613 16.7348C38.2613 16.6849 38.2613 16.6185 38.2613 16.5688C38.2613 16.5189 38.2613 16.4526 38.2613 16.4027C38.2613 16.353 38.2779 16.2865 38.2945 16.2368C38.3111 16.1372 38.3443 16.021 38.3941 15.9213C38.4273 15.8383 38.4771 15.7387 38.5435 15.6557C38.5767 15.6059 38.61 15.5727 38.6431 15.5229C38.6763 15.4731 38.7095 15.4399 38.7593 15.4067C38.7925 15.3735 38.8423 15.3237 38.8755 15.2905C38.9087 15.2573 38.9585 15.2241 39.0083 15.1909C39.0913 15.1245 39.1909 15.0747 39.2905 15.0415C39.3901 14.9917 39.4897 14.9585 39.5894 14.9419C39.6392 14.9253 39.689 14.9253 39.7554 14.9253C39.8716 14.9087 39.9712 14.9087 40.0874 14.9253C40.1371 14.9253 40.2036 14.9419 40.2534 14.9419C40.353 14.9585 40.4692 14.9917 40.5688 15.0415C40.6518 15.0747 40.7514 15.1245 40.8344 15.1909C40.8842 15.2241 40.9174 15.2573 40.9673 15.2905C41.017 15.3237 41.0502 15.3569 41.0835 15.4067C41.1166 15.4565 41.1664 15.4897 41.1997 15.5229C41.2328 15.5727 41.266 15.6059 41.2993 15.6557C41.3656 15.7387 41.4154 15.8383 41.4486 15.9379C41.4985 16.0375 41.5316 16.1372 41.5482 16.2368C41.5648 16.3031 41.5648 16.353 41.5815 16.4027C41.5815 16.4526 41.5815 16.5189 41.5815 16.5688C41.5815 16.6185 41.5815 16.6849 41.5815 16.7348C41.5815 16.7846 41.5648 16.851 41.5648 16.9007C41.5316 17.0004 41.4985 17.1 41.4486 17.1996C41.4154 17.2992 41.3656 17.3988 41.2993 17.4984C41.266 17.5316 41.2328 17.5814 41.1997 17.6146C41.1664 17.6644 41.1332 17.6976 41.1 17.7474C41.0502 17.7806 41.017 17.8138 40.9673 17.847C40.934 17.8802 40.8842 17.9134 40.8344 17.9466C40.7514 18.013 40.6518 18.0629 40.5522 18.096C40.4526 18.1458 40.353 18.179 40.2534 18.1956C40.187 18.2122 40.1371 18.2122 40.0874 18.2288C40.0375 18.2288 39.9712 18.2288 39.9214 18.2288Z" fill="#F8CC46"/>
</g>
</g>
</svg>
