<svg width="86" height="86" viewBox="0 0 86 86" fill="none" xmlns="http://www.w3.org/2000/svg">
<mask id="mask0_1_144" style="mask-type:luminance" maskUnits="userSpaceOnUse" x="0" y="0" width="86" height="86">
<path d="M85.5 0.55957H0.5V85.5596H85.5V0.55957Z" fill="white"/>
</mask>
<g mask="url(#mask0_1_144)">
<mask id="mask1_1_144" style="mask-type:luminance" maskUnits="userSpaceOnUse" x="-14" y="-14" width="114" height="114">
<path d="M99.6729 99.7159H-13.6603V-13.6174H99.6729V99.7159Z" fill="white"/>
</mask>
<g mask="url(#mask1_1_144)">
<path d="M51.9349 83.8571C50.8393 83.8571 49.7436 83.8073 48.648 83.6911C40.9618 82.9274 33.7239 79.5077 28.2457 74.0295C21.9042 67.688 18.4181 59.2713 18.4181 50.3236C18.4181 41.3591 21.9042 32.9426 28.2457 26.6177C34.5872 20.2762 43.0037 16.79 51.9516 16.79C60.8994 16.79 69.3326 20.2762 75.6741 26.6011C81.1357 32.0628 84.572 39.3007 85.3357 46.9702C86.0831 54.5402 84.24 62.2097 80.1064 68.5512C79.6084 69.3149 78.5792 69.5307 77.8156 69.0326C77.0519 68.5346 76.8361 67.5054 77.3341 66.7417C81.0361 61.031 82.7127 54.1251 82.0321 47.3022C81.3515 40.3797 78.2472 33.8722 73.3333 28.9418C67.6227 23.2477 60.0361 20.1102 51.9682 20.1102C43.9002 20.1102 36.3136 23.2477 30.603 28.9584C24.8923 34.669 21.7548 42.2556 21.7548 50.3236C21.7548 58.3915 24.8923 65.9781 30.603 71.6887C35.5334 76.6192 42.0575 79.7069 48.9801 80.3875C55.8029 81.0681 62.7254 79.3914 68.4361 75.6563C69.1997 75.1583 70.229 75.3741 70.727 76.1377C71.225 76.9014 71.0092 77.9306 70.2456 78.4286C64.8172 81.9812 58.4093 83.8571 51.9349 83.8571Z" fill="#F8CC46"/>
<path d="M74.5006 74.5164C74.4508 74.5164 74.3844 74.5164 74.3346 74.5164C74.2847 74.5164 74.2184 74.4998 74.1685 74.4832C74.0689 74.4666 73.9527 74.4334 73.8531 74.3836C73.7701 74.3504 73.6705 74.3006 73.5709 74.2342C73.5211 74.201 73.4879 74.1678 73.4381 74.1345C73.3883 74.1014 73.3551 74.0682 73.3219 74.0184C73.2887 73.9852 73.2389 73.9354 73.2057 73.9022C73.1725 73.869 73.1393 73.8192 73.106 73.7694C73.0562 73.6863 73.0064 73.5867 72.9733 73.4872C72.9235 73.3876 72.8902 73.2879 72.8737 73.1883C72.8571 73.1385 72.8571 73.0721 72.8571 73.0223C72.8571 72.9725 72.8404 72.9061 72.8404 72.8563C72.8404 72.8065 72.8404 72.7401 72.8571 72.6903C72.8571 72.6405 72.8737 72.5741 72.8737 72.5243C72.8902 72.4247 72.9235 72.3085 72.9733 72.2089C73.0231 72.1093 73.0562 72.0263 73.1227 71.9267C73.1559 71.8769 73.1891 71.8437 73.2222 71.7939C73.2555 71.7441 73.2887 71.7109 73.3385 71.6777C73.3717 71.6445 73.4215 71.6112 73.4547 71.5615C73.4879 71.5283 73.5377 71.495 73.5875 71.4619C73.6705 71.4121 73.7701 71.3623 73.8697 71.329C73.9693 71.2792 74.0689 71.2461 74.1685 71.2294C74.2184 71.2128 74.2682 71.2128 74.3346 71.1963C74.4507 71.1797 74.5504 71.1797 74.6666 71.1963C74.7164 71.1963 74.7828 71.2128 74.8326 71.2294C74.9322 71.2461 75.0484 71.2792 75.148 71.329C75.231 71.3623 75.3306 71.4121 75.4135 71.4785C75.4634 71.5117 75.4966 71.5449 75.5464 71.5781C75.5962 71.6112 75.6294 71.6445 75.6626 71.6943C75.6958 71.7275 75.7456 71.7772 75.7788 71.8105C75.812 71.8437 75.8452 71.8935 75.8784 71.9433C75.9448 72.0263 75.9946 72.1259 76.0278 72.2255C76.0776 72.3251 76.1108 72.4247 76.1274 72.5243C76.144 72.5907 76.144 72.6405 76.1606 72.6903C76.1772 72.7401 76.1606 72.8065 76.1606 72.8563C76.1606 72.9061 76.1606 72.9725 76.144 73.0223C76.1274 73.0721 76.144 73.1219 76.1274 73.1883C76.1108 73.2879 76.0776 73.3876 76.0278 73.4872C75.9946 73.5867 75.9448 73.6863 75.8784 73.7694C75.8452 73.8192 75.812 73.869 75.7788 73.9022C75.7456 73.952 75.7124 73.9852 75.6792 74.035C75.6294 74.0682 75.5962 74.1014 75.5464 74.1345C75.5132 74.1678 75.4634 74.201 75.4135 74.2342C75.3306 74.3006 75.231 74.3504 75.1313 74.3836C75.0317 74.4334 74.9322 74.4666 74.8326 74.4832C74.7662 74.4998 74.7164 74.4998 74.6666 74.5164C74.6168 74.5164 74.5504 74.5164 74.5006 74.5164Z" fill="#F8CC46"/>
<path d="M51.9627 76.071C37.7691 76.071 26.2149 64.5169 26.2149 50.3232C26.2149 36.1296 37.7691 24.5754 51.9627 24.5754C66.1564 24.5754 77.7105 36.1296 77.7105 50.3232C77.7105 64.5169 66.1564 76.071 51.9627 76.071ZM51.9627 27.879C39.5951 27.879 29.5351 37.9391 29.5351 50.3066C29.5351 62.6907 39.5951 72.7508 51.9627 72.7508C64.3303 72.7508 74.3904 62.6907 74.3904 50.3232C74.3904 37.9556 64.3303 27.879 51.9627 27.879Z" fill="#F8CC46"/>
<path d="M57.9131 13.5517H45.9606C42.8562 13.5517 40.3163 11.0118 40.3163 7.90744C40.3163 4.8031 42.8562 2.26318 45.9606 2.26318H57.9131C61.0175 2.26318 63.5574 4.8031 63.5574 7.90744C63.5574 11.0118 61.0175 13.5517 57.9131 13.5517ZM45.9606 5.58333C44.6823 5.58333 43.6364 6.62918 43.6364 7.90744C43.6364 9.18567 44.6823 10.2315 45.9606 10.2315H57.9131C59.1914 10.2315 60.2372 9.18567 60.2372 7.90744C60.2372 6.62918 59.1914 5.58333 57.9131 5.58333H45.9606Z" fill="#F8CC46"/>
<path d="M57.6161 20.105C56.7032 20.105 55.9561 19.3579 55.9561 18.4449V13.5476H47.9213V18.4449C47.9213 19.3579 47.1743 20.105 46.2612 20.105C45.3483 20.105 44.6012 19.3579 44.6012 18.4449V11.8876C44.6012 10.9745 45.3483 10.2275 46.2612 10.2275H57.6161C58.5292 10.2275 59.2763 10.9745 59.2763 11.8876V18.4449C59.2763 19.3579 58.5292 20.105 57.6161 20.105Z" fill="#F8CC46"/>
<path d="M55.1091 48.8319C54.6774 48.8319 54.2625 48.6659 53.9304 48.3505C53.283 47.703 53.283 46.6406 53.9304 45.9932L62.4632 37.4604C63.1106 36.813 64.1565 36.813 64.8039 37.4604C65.4514 38.1078 65.4514 39.1536 64.8039 39.8011L56.2877 48.3505C55.9557 48.6659 55.5407 48.8319 55.1091 48.8319Z" fill="#F8CC46"/>
<path d="M51.967 55.4812C49.1117 55.4812 46.8042 53.1571 46.8042 50.3183C46.8042 47.4797 49.1117 45.1555 51.967 45.1555C54.8224 45.1555 57.1133 47.4797 57.1133 50.3183C57.1133 53.1571 54.8058 55.4812 51.967 55.4812ZM51.967 48.4757C50.9544 48.4757 50.1243 49.3057 50.1243 50.3183C50.1243 51.331 50.9544 52.161 51.967 52.161C52.9797 52.161 53.7931 51.331 53.7931 50.3183C53.7931 49.3057 52.9797 48.4757 51.967 48.4757Z" fill="#F8CC46"/>
<path d="M69.7117 51.9987H68.1679C67.2548 51.9987 66.5078 51.2516 66.5078 50.3385C66.5078 49.4255 67.2548 48.6785 68.1679 48.6785H69.7117C70.6248 48.6785 71.3718 49.4255 71.3718 50.3385C71.3718 51.2516 70.6248 51.9987 69.7117 51.9987Z" fill="#F8CC46"/>
<path d="M35.7574 51.9581H34.2135C33.3004 51.9581 32.5535 51.2111 32.5535 50.2981C32.5535 49.385 33.3004 48.6379 34.2135 48.6379H35.7574C36.6704 48.6379 37.4174 49.385 37.4174 50.2981C37.4174 51.2111 36.6704 51.9581 35.7574 51.9581Z" fill="#F8CC46"/>
<path d="M51.983 35.7729C51.07 35.7729 50.3229 35.0259 50.3229 34.1128V32.569C50.3229 31.6559 51.07 30.9089 51.983 30.9089C52.896 30.9089 53.6431 31.6559 53.6431 32.569V34.1128C53.6431 35.0259 52.896 35.7729 51.983 35.7729Z" fill="#F8CC46"/>
<path d="M51.9423 69.7278C51.0292 69.7278 50.2823 68.9807 50.2823 68.0677V66.5238C50.2823 65.6108 51.0292 64.8638 51.9423 64.8638C52.8554 64.8638 53.6024 65.6108 53.6024 66.5238V68.0677C53.6024 68.9807 52.8554 69.7278 51.9423 69.7278Z" fill="#F8CC46"/>
<path d="M49.3373 49.3529C48.9057 49.3529 48.4907 49.1868 48.1586 48.8715L43.6598 44.3727C43.0125 43.7253 43.0125 42.6794 43.6598 42.032C44.3073 41.3845 45.3531 41.3845 46.0006 42.032L50.516 46.5142C51.1634 47.1616 51.1634 48.2241 50.516 48.8715C50.1839 49.1868 49.769 49.3529 49.3373 49.3529Z" fill="#F8CC46"/>
<path d="M54.4367 49.5047C54.0051 49.5047 53.5901 49.3387 53.258 49.0233C52.6106 48.3759 52.6106 47.3134 53.258 46.666L62.2225 37.7016C62.8699 37.0542 63.9158 37.0542 64.5632 37.7016C65.2106 38.3491 65.2106 39.3949 64.5632 40.0423L55.5988 49.0067C55.2833 49.3387 54.8684 49.5047 54.4367 49.5047Z" fill="#F8CC46"/>
<path d="M21.5434 62.2217H8.79405C7.881 62.2217 7.13397 61.4746 7.13397 60.5617C7.13397 59.6486 7.881 58.9016 8.79405 58.9016H21.5434C22.4565 58.9016 23.2035 59.6486 23.2035 60.5617C23.2035 61.4746 22.4565 62.2217 21.5434 62.2217Z" fill="#F8CC46"/>
<path d="M20.0893 52.5209H11.1249C10.2118 52.5209 9.46484 51.7738 9.46484 50.8607C9.46484 49.9477 10.2118 49.2007 11.1249 49.2007H20.0893C21.0023 49.2007 21.7494 49.9477 21.7494 50.8607C21.7494 51.7738 21.0023 52.5209 20.0893 52.5209Z" fill="#F8CC46"/>
<path d="M21.1007 42.8199H2.15922C1.24618 42.8199 0.499146 42.0729 0.499146 41.1599C0.499146 40.2468 1.24618 39.4998 2.15922 39.4998H21.1007C22.0137 39.4998 22.7607 40.2468 22.7607 41.1599C22.7607 42.0729 22.0137 42.8199 21.1007 42.8199Z" fill="#F8CC46"/>
<path d="M25.3062 33.1192H13.4699C12.5568 33.1192 11.8098 32.3721 11.8098 31.4591C11.8098 30.5461 12.5568 29.7991 13.4699 29.7991H25.3062C26.2193 29.7991 26.9663 30.5461 26.9663 31.4591C26.9663 32.3721 26.2193 33.1192 25.3062 33.1192Z" fill="#F8CC46"/>
<path d="M2.16008 62.2218C2.11027 62.2218 2.04387 62.2218 1.99407 62.2052C1.94427 62.2052 1.89446 62.1886 1.82806 62.1719C1.72845 62.1554 1.61225 62.1221 1.51265 62.0723C1.42965 62.0558 1.33004 62.0059 1.23043 61.9396C1.18063 61.9063 1.14743 61.8732 1.09763 61.8399C1.04783 61.8068 1.01462 61.7735 0.981422 61.7237C0.94822 61.6905 0.898418 61.6408 0.865216 61.6075C0.832015 61.5577 0.798813 61.5245 0.765612 61.4747C0.71581 61.3917 0.666008 61.2921 0.632806 61.1925C0.583004 61.093 0.549802 60.9933 0.533202 60.8937C0.516601 60.8439 0.516601 60.7775 0.516601 60.7277C0.516601 60.6779 0.5 60.6115 0.5 60.5617C0.5 60.5119 0.5 60.4455 0.516601 60.3957C0.516601 60.3459 0.533202 60.2795 0.533202 60.2297C0.549802 60.1301 0.583004 60.0139 0.632806 59.9143C0.666008 59.8313 0.71581 59.7317 0.782213 59.6321C0.815415 59.5822 0.848616 59.549 0.881817 59.4992C0.915018 59.4495 0.94822 59.4162 0.998023 59.383C1.03122 59.3499 1.08103 59.3166 1.11423 59.2668C1.16403 59.2337 1.19723 59.2004 1.24703 59.1672C1.33004 59.1174 1.42965 59.0677 1.52925 59.0344C1.62885 58.9846 1.72845 58.9514 1.82806 58.9348C1.87786 58.9182 1.92767 58.9182 1.99407 58.9017C2.11027 58.885 2.20988 58.885 2.32608 58.9017C2.37588 58.9017 2.44228 58.9182 2.49209 58.9348C2.5917 58.9514 2.7079 58.9846 2.8075 59.0344C2.89051 59.0677 2.99011 59.1174 3.07312 59.1839C3.12292 59.217 3.15612 59.2502 3.20592 59.2835C3.25573 59.3166 3.28893 59.3499 3.32213 59.3997C3.35533 59.4328 3.40513 59.4826 3.43833 59.5159C3.47153 59.549 3.50473 59.5988 3.53793 59.6486C3.60434 59.7317 3.65415 59.8313 3.68735 59.9308C3.73715 60.0305 3.77035 60.1301 3.78695 60.2297C3.80355 60.2795 3.80355 60.3293 3.80355 60.3957C3.82015 60.4455 3.82015 60.5119 3.82015 60.5617C3.82015 60.6115 3.82015 60.6779 3.80355 60.7277C3.80355 60.7775 3.78695 60.8439 3.78695 60.8937C3.77035 60.9933 3.73715 61.093 3.68735 61.1925C3.65415 61.2921 3.60434 61.3917 3.53793 61.4747C3.50473 61.5245 3.47153 61.5743 3.43833 61.6075C3.40513 61.6574 3.37193 61.6905 3.33873 61.7403C3.28893 61.7735 3.25573 61.8068 3.20592 61.8399C3.17272 61.8732 3.12292 61.9063 3.07312 61.9396C2.99011 62.0059 2.89051 62.0558 2.7909 62.089C2.6913 62.1388 2.5917 62.1719 2.49209 62.1886C2.42568 62.2052 2.37588 62.2052 2.32608 62.2218C2.27628 62.2218 2.20988 62.2218 2.16008 62.2218Z" fill="#F8CC46"/>
</g>
</g>
</svg>
