<svg width="32" height="32" viewBox="0 0 32 32" fill="none" xmlns="http://www.w3.org/2000/svg">
<path fill-rule="evenodd" clip-rule="evenodd" d="M15.971 0.0351562C12.8122 0.0351562 9.72441 0.971837 7.09799 2.72675C4.47157 4.48167 2.42454 6.976 1.21573 9.89432C0.00692165 12.8126 -0.30936 16.0239 0.306885 19.1219C0.923129 22.22 2.44421 25.0658 4.6778 27.2994C6.91138 29.5329 9.75715 31.054 12.8552 31.6703C15.9533 32.2865 19.1645 31.9702 22.0828 30.7614C25.0011 29.5526 27.4955 27.5056 29.2504 24.8792C31.0053 22.2527 31.942 19.1649 31.942 16.0062C31.942 11.7704 30.2593 7.7081 27.2642 4.71295C24.269 1.71781 20.2068 0.0351562 15.971 0.0351562ZM12.459 7.53516C13.368 7.49416 13.659 7.48415 15.971 7.48415C18.286 7.48415 18.571 7.49416 19.483 7.53516C20.1903 7.55087 20.8898 7.68611 21.552 7.93516C22.1181 8.15396 22.6322 8.48867 23.0613 8.91782C23.4905 9.34696 23.8252 9.86107 24.044 10.4272C24.2923 11.0888 24.4276 11.7876 24.444 12.4942C24.485 13.4032 24.495 13.6942 24.495 16.0062C24.495 18.3182 24.484 18.6062 24.444 19.5182C24.4275 20.225 24.2923 20.9241 24.044 21.5862C23.8249 22.1519 23.4902 22.6658 23.0613 23.0949C22.6324 23.524 22.1187 23.8589 21.553 24.0782C20.891 24.3277 20.1913 24.4629 19.484 24.4782C18.576 24.5192 18.284 24.5292 15.973 24.5292C13.662 24.5292 13.373 24.5192 12.461 24.4782C11.754 24.463 11.0547 24.3277 10.393 24.0782C9.82713 23.8592 9.31324 23.5244 8.88428 23.0953C8.45532 22.6661 8.12076 22.1521 7.90201 21.5862C7.65303 20.9247 7.5178 20.2258 7.50201 19.5192C7.46101 18.6102 7.45099 18.3192 7.45099 16.0072C7.45099 13.6952 7.46201 13.4072 7.50201 12.4952C7.51654 11.7881 7.65181 11.0887 7.90201 10.4272C8.12099 9.86128 8.45576 9.3474 8.88489 8.91844C9.31402 8.48948 9.82805 8.15491 10.394 7.93616C11.0551 7.68665 11.7526 7.55106 12.459 7.53516Z" fill="#0086D5"/>
</svg>
