<svg width="31" height="37" viewBox="0 0 31 37" fill="none" xmlns="http://www.w3.org/2000/svg">
<path d="M28.8932 10.4399C28.745 13.9042 28.4006 17.3573 27.8617 20.7827C27.5233 22.9136 26.9101 24.9916 26.0375 26.9648C25.7308 27.7831 25.134 28.4601 24.3607 28.8671C24.2182 28.0205 23.2878 27.6898 23.0623 26.8543C22.785 25.8274 23.3609 24.8415 22.6375 23.9834C21.2874 22.3978 20.2743 20.554 19.6599 18.5641C19.1788 16.9703 18.9907 15.2615 19.6015 13.6817C19.9487 12.8235 20.5077 12.0672 21.2262 11.4835C21.9447 10.8997 22.7994 10.5075 23.7105 10.3433C25.209 10.0846 27.6091 9.60889 28.8915 10.4399" fill="black"/>
<path d="M24.3595 29.2763C24.4336 29.2764 24.5063 29.2562 24.5698 29.2179C25.4136 28.7667 26.0666 28.0267 26.4092 27.1333C27.2978 25.1266 27.9212 23.0128 28.2639 20.8452C28.8063 17.4057 29.1521 13.9381 29.2994 10.4592C29.3031 10.3878 29.2878 10.3168 29.2552 10.2531C29.2226 10.1895 29.1738 10.1356 29.1138 10.0969C27.7619 9.22158 25.4234 9.62947 23.8768 9.89935L23.641 9.94043C22.6597 10.1163 21.7391 10.5385 20.9655 11.1675C20.1919 11.7964 19.5907 12.6115 19.2183 13.5363C18.6493 15.0085 18.6654 16.6923 19.2676 18.6845C19.8951 20.7288 20.9351 22.6227 22.3233 24.2492C22.6519 24.6403 22.626 25.0769 22.5911 25.6298C22.5419 26.0754 22.5674 26.5261 22.6667 26.9632C22.8124 27.4023 23.0703 27.7958 23.4147 28.1047C23.6747 28.321 23.864 28.6101 23.9582 28.9349C23.9742 29.0302 24.0235 29.1167 24.0972 29.1792C24.171 29.2416 24.2645 29.2758 24.3611 29.2759M28.4729 10.6716C28.3221 14.0377 27.9833 17.3928 27.4579 20.7211C27.1265 22.8156 26.524 24.8581 25.6657 26.7973C25.4526 27.3785 25.0703 27.8827 24.5682 28.2448C24.4118 27.9869 24.2231 27.75 24.0066 27.5399C23.7594 27.3269 23.5699 27.0549 23.4558 26.7492C23.381 26.3974 23.3647 26.0358 23.4073 25.6787C23.4455 25.0626 23.4895 24.3643 22.9485 23.7214C21.6322 22.1797 20.6456 20.3847 20.0497 18.4471C19.5025 16.6364 19.4799 15.1268 19.9811 13.8308C20.3012 13.037 20.8177 12.3375 21.4821 11.798C22.1466 11.2585 22.9373 10.8966 23.7799 10.7464L24.0173 10.7053C25.3556 10.4711 27.3405 10.1253 28.4709 10.672" fill="black"/>
<path d="M5.51659 17.856C5.79797 20.6624 5.36666 23.4967 5.48537 26.3142C5.60409 29.1316 6.36483 32.072 8.62695 34.1188C10.6176 35.9213 13.6909 36.8279 16.6152 36.475C19.5395 36.1222 22.2366 34.5201 23.6267 32.3098C24.9338 30.2317 24.9822 25.8327 25.0915 23.6277C26.406 23.767 27.8367 23.2925 28.5831 22.3564C28.9534 21.9109 29.1332 21.3374 29.0833 20.7603C29.0335 20.1831 28.7581 19.6489 28.3169 19.2735C27.3754 18.4976 26.2195 18.4245 24.965 19.7077C24.9341 18.235 24.7436 16.77 24.3969 15.3384C23.9159 13.1526 23.7183 9.88495 22.1376 9.01904C21.2438 8.52899 19.3888 8.15149 18.3499 7.93337C16.5544 7.5567 14.1416 8.79599 12.2857 8.88061C10.4298 8.96523 8.57273 9.93999 7.12066 10.9345C5.38268 12.1257 5.30463 15.7545 5.51536 17.8543" fill="white"/>
<path d="M15.3513 36.9592C15.7906 36.9596 16.2295 36.9335 16.6657 36.8812C19.7157 36.5115 22.5159 34.8458 23.9742 32.527C25.2065 30.5705 25.3634 26.8497 25.4677 24.3876C25.4727 24.2746 25.478 24.1645 25.4821 24.059C26.1242 24.0848 26.764 23.9682 27.3556 23.7176C27.9473 23.467 28.4761 23.0885 28.9043 22.6093C29.345 22.0815 29.5582 21.4004 29.4971 20.7155C29.4361 20.0305 29.1057 19.3979 28.5785 18.9563C28.1421 18.5562 27.5774 18.3247 26.9857 18.3033C26.3941 18.2818 25.8141 18.4718 25.3498 18.8393C25.2633 17.648 25.0827 16.4654 24.8097 15.3025L24.7978 15.2491C24.6992 14.803 24.6137 14.313 24.523 13.7938C24.1652 11.7522 23.7606 9.4396 22.3364 8.65913C21.422 8.15799 19.6253 7.78131 18.5536 7.55662L18.4366 7.53197C17.2806 7.29044 15.9506 7.64576 14.664 7.98998C13.8844 8.2317 13.0821 8.39315 12.2696 8.47182C10.6516 8.5437 8.84258 9.25968 6.89183 10.598C4.65435 12.1338 5.01583 16.9469 5.11072 17.8961C5.22891 19.4643 5.23605 21.0389 5.13208 22.6081C5.0795 23.826 5.02528 25.0863 5.07786 26.3305C5.22697 29.8673 6.32866 32.5894 8.35335 34.4227C10.3021 36.0885 12.7894 36.9901 15.3529 36.9596M25.0927 23.2193C24.9878 23.2191 24.8868 23.2594 24.8108 23.3318C24.7348 23.4042 24.6897 23.5031 24.6848 23.6079C24.6729 23.8351 24.6618 24.0861 24.6507 24.3551C24.5558 26.5864 24.3964 30.3208 23.282 32.0932C21.9519 34.2067 19.3797 35.7306 16.5675 36.0691C13.7484 36.4092 10.8131 35.5458 8.90214 33.8164C7.04628 32.1364 6.03455 29.6072 5.8957 26.2993C5.84477 25.0892 5.89571 23.8474 5.94911 22.6455C6.05573 21.0375 6.0475 19.424 5.92446 17.8173C5.68457 15.4171 5.91419 12.2636 7.35435 11.2757C9.17695 10.0249 10.8434 9.35662 12.3066 9.29131C13.1784 9.21043 14.0395 9.04017 14.8764 8.78318C16.0705 8.4636 17.3053 8.13252 18.2681 8.33544L18.386 8.36009C19.413 8.57533 21.1357 8.93517 21.9437 9.37962C23.0216 9.97072 23.3913 12.0792 23.717 13.9392C23.8094 14.4666 23.8969 14.9661 23.9988 15.4286L24.0107 15.4829C24.3443 16.8678 24.5277 18.2847 24.5579 19.7089C24.5575 19.7903 24.5814 19.87 24.6266 19.9377C24.6718 20.0055 24.7362 20.0582 24.8115 20.0891C24.8869 20.12 24.9697 20.1277 25.0494 20.1112C25.1292 20.0946 25.2022 20.0547 25.2591 19.9964C26.247 18.9863 27.1622 18.8541 28.0589 19.5918C28.4187 19.8981 28.6424 20.3345 28.6809 20.8055C28.7194 21.2764 28.5696 21.7434 28.2643 22.1041C27.6366 22.8919 26.3501 23.3532 25.1354 23.2243C25.1211 23.2226 25.1067 23.2218 25.0923 23.2218" fill="black"/>
<path d="M13.8474 12.8273C13.7024 14.0962 11.9579 16.0469 10.7601 16.2955C9.56225 16.544 9.05206 16.0317 8.44371 14.9198C7.46936 15.9833 6.76366 17.0394 5.71126 17.5701C4.10227 18.3801 1.9219 17.5454 1.18415 15.8358C0.446406 14.1262 1.29506 11.871 2.9439 11.153C1.82865 11.5457 0.565939 10.5044 0.415597 9.27867C0.376245 8.66954 0.504153 8.06125 0.785496 7.51956C1.06684 6.97787 1.49091 6.52339 2.01186 6.20527C3.01167 5.55543 4.22304 5.36812 5.39168 5.07483C4.82071 3.93083 5.23805 2.43973 6.14668 1.57465C7.09262 0.756422 8.32124 0.340935 9.56964 0.417093C10.3872 0.401822 11.1922 0.619673 11.8905 1.04516C12.2491 1.28432 12.5486 1.60198 12.7662 1.97405C12.9839 2.34613 13.114 2.76286 13.1466 3.19268C14.0701 1.7406 15.691 0.662734 17.3472 0.883318C19.0034 1.1039 20.428 2.95443 20.6896 4.30299C21.3756 3.2547 22.3225 2.35306 23.5408 2.29309C25.9578 2.17355 26.7111 4.16333 25.9011 6.90769C26.2477 6.70826 26.6332 6.5858 27.0314 6.54861C27.4295 6.51143 27.831 6.5604 28.2086 6.6922C28.5861 6.824 28.9309 7.03554 29.2194 7.31244C29.5079 7.58934 29.7334 7.92511 29.8806 8.29692C30.4759 9.63604 30.1969 11.8945 29.3466 13.0795C28.4963 14.2646 25.19 15.5442 22.6355 14.0855C21.4068 13.3452 20.4604 12.2161 19.9461 10.877C19.3686 12.1611 18.9377 13.0475 17.235 13.8099C15.9916 14.3653 14.4089 14.0116 13.8486 12.8277" fill="black"/>
<path d="M4.36025 18.2885C4.89269 18.2927 5.41862 18.1712 5.8953 17.934C6.76038 17.499 7.39544 16.7567 8.06828 15.9688C8.16933 15.8518 8.27079 15.7331 8.37636 15.6127C8.87915 16.3981 9.53474 16.9654 10.8435 16.6951C11.9562 16.4642 13.4116 15.0216 14.0011 13.7207C14.4609 14.121 15.028 14.3779 15.6322 14.4597C16.2364 14.5414 16.8513 14.4445 17.401 14.1808C18.5174 13.7454 19.4275 12.9032 19.9478 11.8237C20.51 12.9132 21.371 13.8199 22.4301 14.4375C25.218 16.0268 28.756 14.5944 29.6765 13.3153C30.6254 11.9946 30.8953 9.57067 30.2516 8.12722C30.0648 7.68403 29.7835 7.28694 29.4274 6.96364C29.0714 6.64034 28.649 6.39862 28.1899 6.25533C27.6376 6.08733 27.0499 6.07313 26.4902 6.21425C26.7674 4.79545 26.5961 3.61818 25.9898 2.84593C25.6132 2.36779 24.8808 1.81119 23.5174 1.87897C22.5315 1.92909 21.632 2.44214 20.8322 3.40992C20.2435 2.04287 18.8901 0.671303 17.3981 0.473722C15.9674 0.282713 14.4492 0.960486 13.3459 2.23265C13.1022 1.60738 12.6719 1.07228 12.1136 0.700057C11.3517 0.232126 10.4718 -0.00764711 9.57786 0.00913916C8.22136 -0.0715744 6.88759 0.384821 5.8649 1.27966C5.3956 1.719 5.05305 2.27643 4.8731 2.89358C4.69316 3.51074 4.68245 4.16492 4.84208 4.78764L4.64696 4.83242C3.64168 5.00711 2.67451 5.35559 1.78882 5.86222C1.20377 6.22247 0.728591 6.73612 0.414882 7.34739C0.101173 7.95865 -0.039077 8.64419 0.00935692 9.32955C0.0655506 9.73102 0.208916 10.1153 0.429392 10.4555C0.649868 10.7957 0.942111 11.0835 1.28562 11.2988C1.42202 11.3835 1.56633 11.4548 1.71652 11.5116C1.14704 12.0908 0.75811 12.8231 0.59702 13.6193C0.435931 14.4154 0.509619 15.2413 0.809125 15.9964C1.12025 16.6777 1.62005 17.2556 2.24939 17.6618C2.87873 18.0679 3.61124 18.2852 4.36025 18.2881M8.44496 14.509C8.38827 14.509 8.33221 14.5208 8.28036 14.5437C8.22851 14.5666 8.18202 14.6001 8.14386 14.6421C7.8974 14.9111 7.66819 15.1761 7.44555 15.4361C6.80105 16.1903 6.24446 16.8413 5.52725 17.2024C5.184 17.3652 4.8112 17.4565 4.43154 17.4706C4.05189 17.4848 3.67334 17.4214 3.31894 17.2845C2.93161 17.1496 2.57586 16.9371 2.27343 16.6601C1.97101 16.383 1.72825 16.0472 1.56002 15.6731C0.911409 14.1701 1.66353 12.1577 3.10698 11.5292C3.20599 11.4884 3.28499 11.4103 3.32695 11.3117C3.36891 11.2132 3.37047 11.1021 3.3313 11.0024C3.29213 10.9028 3.21536 10.8225 3.11754 10.7788C3.01972 10.7352 2.90868 10.7318 2.80835 10.7693C2.62574 10.8265 2.43253 10.8414 2.24332 10.8129C2.0541 10.7844 1.87382 10.7133 1.71611 10.605C1.47699 10.4536 1.27324 10.2526 1.11873 10.0155C0.964211 9.77841 0.862539 9.51084 0.820627 9.23096C0.683018 8.10052 1.43062 7.06989 2.23286 6.55109C3.03993 6.09695 3.91927 5.7854 4.83222 5.63014C5.05199 5.5792 5.27257 5.52744 5.48946 5.47322C5.54886 5.45859 5.60419 5.43075 5.65135 5.39179C5.69851 5.35282 5.73629 5.30373 5.76186 5.24816C5.78744 5.19258 5.80016 5.13196 5.79908 5.07079C5.798 5.00963 5.78316 4.94949 5.75564 4.89486C5.54506 4.38291 5.49654 3.81869 5.61663 3.27831C5.73672 2.73793 6.01965 2.24737 6.42725 1.87281C7.29585 1.12952 8.42011 0.754327 9.56102 0.826985C10.3004 0.809952 11.0294 1.00387 11.6625 1.38605C11.9683 1.59094 12.2239 1.86228 12.4101 2.1798C12.5963 2.49732 12.7084 2.85282 12.7379 3.21973C12.7435 3.3058 12.7761 3.3879 12.8312 3.45429C12.8863 3.52067 12.9609 3.56794 13.0445 3.58932C13.128 3.6107 13.2162 3.6051 13.2964 3.57332C13.3766 3.54153 13.4447 3.4852 13.4909 3.41238C14.4278 1.93935 15.9214 1.10549 17.2922 1.28951C18.7906 1.48792 20.0673 3.25382 20.2867 4.38098C20.3021 4.46099 20.341 4.53459 20.3985 4.59231C20.456 4.65002 20.5295 4.68924 20.6094 4.70491C20.6894 4.72059 20.7722 4.712 20.8472 4.68027C20.9223 4.64853 20.9861 4.59509 21.0306 4.5268C21.7938 3.36062 22.6445 2.74652 23.5597 2.70175C23.8887 2.65475 24.2242 2.68995 24.5363 2.8042C24.8484 2.91846 25.1273 3.10821 25.3482 3.35652C25.89 4.0462 25.9487 5.29782 25.5076 6.79221C25.485 6.87175 25.487 6.95624 25.5133 7.03464C25.5396 7.11303 25.5889 7.18168 25.6548 7.2316C25.7206 7.28153 25.8001 7.3104 25.8827 7.31446C25.9652 7.31851 26.0471 7.29755 26.1176 7.25433C26.391 7.09107 26.696 6.98763 27.0124 6.95081C27.3287 6.91399 27.6493 6.94464 27.9529 7.04073C28.2994 7.15096 28.6178 7.3353 28.886 7.58095C29.1541 7.82659 29.3655 8.12765 29.5056 8.46323C30.0368 9.65652 29.8018 11.7428 29.0127 12.8421C28.3259 13.7971 25.2792 15.1235 22.8351 13.731C21.6865 13.0306 20.8016 11.9704 20.3179 10.7151C20.2862 10.6425 20.2342 10.5806 20.1682 10.5369C20.1022 10.4932 20.0249 10.4694 19.9457 10.4686H19.9433C19.8646 10.4688 19.7876 10.4916 19.7215 10.5342C19.6553 10.5769 19.6029 10.6377 19.5703 10.7093C19.0248 11.9211 18.6645 12.7221 17.0646 13.4368C16.0759 13.8788 14.6957 13.6693 14.2151 12.6531C14.1772 12.5727 14.1141 12.5068 14.0355 12.4655C13.9568 12.4242 13.8667 12.4097 13.7791 12.4242C13.6914 12.4387 13.6108 12.4814 13.5496 12.5459C13.4884 12.6103 13.4499 12.6929 13.4399 12.7813C13.3134 13.8751 11.7122 15.6801 10.675 15.8957C9.79475 16.0781 9.40863 15.8382 8.80151 14.7254C8.77045 14.6682 8.72612 14.6192 8.67223 14.5826C8.61834 14.546 8.55646 14.5229 8.49179 14.5151C8.47542 14.5132 8.45897 14.5121 8.4425 14.5118" fill="black"/>
<path d="M8.53494 21.6484C8.49949 21.5197 8.50347 21.3833 8.54636 21.2568C8.58925 21.1304 8.66908 21.0197 8.77553 20.9391C8.88199 20.8584 9.01019 20.8116 9.14354 20.8046C9.27689 20.7976 9.40928 20.8308 9.52359 20.8998C9.63789 20.9689 9.72886 21.0706 9.78474 21.1919C9.84062 21.3132 9.85883 21.4484 9.83704 21.5802C9.81524 21.7119 9.75443 21.8341 9.66246 21.9309C9.5705 22.0277 9.45161 22.0948 9.32116 22.1233C9.15394 22.1645 8.9772 22.1376 8.82978 22.0486C8.68236 21.9595 8.57632 21.8156 8.53494 21.6484Z" fill="black"/>
<path d="M17.8245 21.1889C17.7888 21.0602 17.7926 20.9237 17.8353 20.7972C17.8779 20.6706 17.9576 20.5598 18.064 20.479C18.1704 20.3982 18.2985 20.3511 18.4319 20.344C18.5653 20.3368 18.6978 20.3698 18.8122 20.4387C18.9266 20.5077 19.0177 20.6093 19.0737 20.7306C19.1297 20.8519 19.1481 20.9871 19.1264 21.1189C19.1047 21.2507 19.0439 21.373 18.952 21.4699C18.8601 21.5668 18.7412 21.6339 18.6107 21.6625C18.4435 21.7037 18.2668 21.6768 18.1194 21.5878C17.9719 21.4988 17.8659 21.3549 17.8245 21.1877" fill="black"/>
<path d="M15.8446 32.5243C16.4375 32.5224 17.0213 32.3788 17.5475 32.1056C18.0736 31.8324 18.5269 31.4374 18.8695 30.9535C18.9062 30.9097 18.9334 30.8587 18.9492 30.8038C18.9651 30.7489 18.9693 30.6912 18.9616 30.6346C18.9539 30.578 18.9345 30.5235 18.9046 30.4748C18.8747 30.4261 18.8349 30.3842 18.7879 30.3517C18.7408 30.3193 18.6875 30.297 18.6314 30.2863C18.5752 30.2756 18.5174 30.2768 18.4618 30.2897C18.4061 30.3026 18.3537 30.327 18.308 30.3613C18.2623 30.3956 18.2242 30.4391 18.1963 30.4889C17.8869 30.9184 17.4665 31.2557 16.9802 31.4647C16.494 31.6738 15.96 31.7467 15.4355 31.6757C15.3284 31.6588 15.219 31.6851 15.1313 31.7489C15.0436 31.8127 14.9849 31.9087 14.968 32.0158C14.9511 32.1229 14.9775 32.2323 15.0412 32.3199C15.105 32.4076 15.201 32.4663 15.3081 32.4832C15.4848 32.5107 15.6633 32.5245 15.8421 32.5243" fill="black"/>
<path d="M13.9058 29.2104C14.1989 29.2121 14.4911 29.1759 14.775 29.1028C15.1213 29.0201 15.4468 28.8668 15.7311 28.6524C16.0154 28.438 16.2523 28.1672 16.4271 27.8569C16.4585 27.8092 16.4796 27.7553 16.4891 27.6989C16.4985 27.6425 16.4961 27.5847 16.4819 27.5293C16.4677 27.4739 16.4421 27.422 16.4067 27.3771C16.3713 27.3322 16.3269 27.2951 16.2764 27.2683C16.2259 27.2415 16.1703 27.2255 16.1132 27.2214C16.0562 27.2174 15.9989 27.2252 15.9451 27.2446C15.8912 27.2639 15.842 27.2943 15.8006 27.3337C15.7592 27.3732 15.7265 27.4209 15.7045 27.4737C15.5817 27.6831 15.4177 27.8654 15.2223 28.0094C15.0269 28.1535 14.8043 28.2563 14.5679 28.3117C14.0491 28.4302 13.5089 28.4174 12.9963 28.2743C12.8045 28.2403 12.6237 28.1609 12.4689 28.0426C12.3854 27.9467 12.3244 27.8333 12.2903 27.7108C12.2563 27.5883 12.2501 27.4597 12.2721 27.3344C12.3173 27.0424 12.3987 26.7572 12.5145 26.4854L12.5679 26.3412C13.2293 24.5234 13.4659 22.5783 13.2596 20.6549C13.2548 20.6008 13.2392 20.5482 13.2138 20.5002C13.1883 20.4522 13.1536 20.4097 13.1116 20.3753C13.0696 20.3409 13.0211 20.3152 12.9691 20.2997C12.917 20.2842 12.8624 20.2792 12.8084 20.2851C12.7544 20.291 12.7021 20.3076 12.6546 20.3339C12.607 20.3602 12.5652 20.3957 12.5316 20.4383C12.498 20.481 12.4732 20.5299 12.4587 20.5823C12.4442 20.6346 12.4402 20.6893 12.4471 20.7432C12.6401 22.5417 12.4188 24.3605 11.8002 26.0602L11.7484 26.2003C11.6084 26.5358 11.5118 26.8878 11.4609 27.2478C11.4231 27.4988 11.4442 27.7551 11.5226 27.9965C11.6011 28.2379 11.7346 28.4578 11.9127 28.6386C12.167 28.8569 12.4738 29.005 12.8028 29.0683C13.1638 29.1602 13.5345 29.2081 13.907 29.2108" fill="black"/>
<path d="M24.9646 21.5586C25.0713 21.5587 25.1738 21.5172 25.2505 21.443C25.3271 21.3688 25.3719 21.2676 25.3753 21.161C25.3967 20.3805 25.3922 19.9628 25.384 19.2061C25.3823 19.0983 25.3384 18.9953 25.2615 18.9196C25.1846 18.8439 25.0811 18.8015 24.9732 18.8015H24.9683C24.86 18.8034 24.7568 18.8479 24.6812 18.9254C24.6055 19.003 24.5636 19.1073 24.5645 19.2156C24.5731 19.9866 24.5772 20.3731 24.5558 21.1384C24.5532 21.2467 24.5934 21.3516 24.6677 21.4304C24.742 21.5091 24.8444 21.5554 24.9527 21.559H24.9646" fill="black"/>
<path d="M26.6126 12.4766C26.6881 12.4767 26.7621 12.4554 26.8262 12.4154C27.4296 12.0286 27.9027 11.4691 28.1837 10.8097C28.4647 10.1503 28.5408 9.42161 28.4019 8.71842C28.3714 8.62029 28.3053 8.53713 28.2165 8.48537C28.1277 8.43361 28.0228 8.41699 27.9224 8.43881C27.822 8.46062 27.7334 8.51928 27.6741 8.60321C27.6148 8.68714 27.5891 8.79025 27.6021 8.89218C27.7084 9.42983 27.6504 9.98704 27.4356 10.4913C27.2208 10.9955 26.8591 11.4233 26.3977 11.7191C26.3231 11.7665 26.2657 11.8368 26.2342 11.9194C26.2027 12.002 26.1987 12.0926 26.2227 12.1777C26.2468 12.2628 26.2977 12.3379 26.3679 12.3917C26.4381 12.4456 26.5237 12.4753 26.6122 12.4766" fill="black"/>
<g opacity="0.129">
<mask id="mask0_223_2" style="mask-type:luminance" maskUnits="userSpaceOnUse" x="5" y="10" width="16" height="9">
<path d="M20.2497 10.842H5.59259V18.3132H20.2497V10.842Z" fill="white"/>
</mask>
<g mask="url(#mask0_223_2)">
<path d="M19.7106 10.8506C19.5767 11.0533 19.4362 11.2517 19.2891 11.4458C19.2772 11.4869 19.255 11.5518 19.2025 11.6985C19.1166 11.8997 19.0183 12.0955 18.9083 12.2846C18.5571 12.8235 18.1104 13.2938 17.5902 13.6722C17.5391 13.5965 17.462 13.5421 17.3735 13.5194C17.285 13.4967 17.1912 13.5072 17.11 13.549C17.0821 13.5617 17.0533 13.5728 17.0254 13.5847L16.9753 13.5983C16.6414 13.6844 16.3024 13.7488 15.9602 13.7909L16.0716 13.7823C15.718 13.7998 15.3636 13.7739 15.0163 13.7051L14.9009 13.6813C14.8142 13.6525 14.7205 13.6525 14.6339 13.6813C14.6125 13.6763 14.5928 13.6693 14.5677 13.6661C14.5644 13.6603 14.5583 13.6509 14.5472 13.6348L14.5377 13.6127C14.5407 13.574 14.5407 13.5351 14.5377 13.4964C14.528 13.4257 14.5033 13.3579 14.4652 13.2975C14.4272 13.2371 14.3767 13.1855 14.3172 13.1462C14.2576 13.1068 14.1903 13.0806 14.1199 13.0693C14.0494 13.0581 13.9773 13.0619 13.9084 13.0807C13.7775 13.1243 13.6661 13.2124 13.5936 13.3298C13.5211 13.4471 13.4921 13.5862 13.5116 13.7227C13.47 13.8192 13.4235 13.9136 13.3724 14.0054C13.1485 14.3488 12.8905 14.6688 12.633 14.9875C12.5837 15.0495 12.4428 15.2036 12.421 15.234C12.4091 15.2467 12.398 15.2586 12.3861 15.2705C11.9672 15.7059 11.4587 16.045 10.8958 16.2646L10.8872 16.2671C10.7472 16.2976 10.6045 16.3144 10.4612 16.3172C10.4175 16.3147 10.3739 16.3099 10.3306 16.3028C10.3093 16.2958 10.2895 16.2909 10.2686 16.2823C10.2185 16.2617 10.1704 16.2375 10.1228 16.2128C10.1117 16.2059 10.0998 16.1976 10.0846 16.1882C10.0694 16.1787 10.0505 16.1619 10.0336 16.1492C9.87262 16.1519 9.71348 16.1144 9.57069 16.0399C9.41489 16.002 9.27198 15.9233 9.15663 15.8119C9.0935 15.7486 9.03744 15.6787 8.98945 15.6033C8.98164 15.593 8.97589 15.5819 8.96808 15.5712C8.95838 15.5632 8.94932 15.5544 8.94098 15.5449C8.91633 15.5178 8.89251 15.4907 8.86868 15.4628C8.70851 15.2812 8.57061 15.0811 8.45791 14.8667H8.44517C8.35511 14.88 8.26988 14.9159 8.19746 14.9711C8.12505 15.0263 8.06781 15.0989 8.03112 15.1822C8.00608 15.2584 7.97546 15.3327 7.93951 15.4044C7.92924 15.425 7.91816 15.4455 7.90706 15.464C7.90296 15.4698 7.89598 15.4817 7.88242 15.5051V15.5026L7.87215 15.5203C7.74399 15.6686 7.64499 15.8436 7.50902 15.9877C7.45644 16.0436 7.4014 16.0978 7.34472 16.152C7.32952 16.1664 7.31268 16.1833 7.29461 16.2013L7.2716 16.2235C6.98826 16.4929 6.68173 16.7367 6.35558 16.9522C6.13664 17.1276 5.82363 17.2184 5.67534 17.4653C5.61079 17.5769 5.58669 17.7073 5.60711 17.8346C5.62753 17.9619 5.69122 18.0782 5.78744 18.164C5.88366 18.2498 6.00652 18.2998 6.13531 18.3056C6.2641 18.3113 6.39093 18.2725 6.49442 18.1956C7.19074 17.7813 7.80765 17.2462 8.31619 16.6154C8.39835 16.5102 8.47557 16.4017 8.54787 16.2897C8.88398 16.7175 9.30619 17.07 9.78716 17.3244C10.157 17.4513 10.5519 17.4878 10.9387 17.4306C11.3255 17.3734 11.693 17.2243 12.0103 16.9958C12.4534 16.7187 12.8511 16.3748 13.1892 15.9762C13.5142 15.6099 13.8023 15.2124 14.0493 14.7895C14.2573 15.0241 14.5083 15.2167 14.7887 15.3568C15.1827 15.5396 15.6245 15.5928 16.0506 15.5088C16.0321 15.5137 16.0124 15.5191 15.9972 15.524C16.0383 15.5191 16.0794 15.5121 16.1229 15.5047C16.6518 15.3854 17.1554 15.1735 17.6103 14.8787C18.2929 14.4755 18.8916 13.9449 19.3737 13.3157C19.6723 12.9155 19.9015 12.468 20.0515 11.9918C20.0778 11.8722 20.0602 11.9782 20.038 12.041C20.1041 11.8636 20.155 11.6816 20.2023 11.4984C20.2463 11.3945 20.2544 11.2788 20.2253 11.1698C20.1986 11.0584 20.129 10.962 20.0316 10.9018C19.9341 10.8415 19.8168 10.8222 19.7052 10.8482" fill="black"/>
</g>
</g>
<g opacity="0.129">
<mask id="mask1_223_2" style="mask-type:luminance" maskUnits="userSpaceOnUse" x="24" y="14" width="5" height="4">
<path d="M28.7564 14.2209H24.3082V17.6661H28.7564V14.2209Z" fill="white"/>
</mask>
<g mask="url(#mask1_223_2)">
<path d="M28.6704 14.3873C28.4507 14.0919 28.1122 14.2591 27.8394 14.3729C27.4348 14.5372 27.0109 14.6444 26.603 14.7976C26.3069 14.924 26.004 15.0337 25.6956 15.1263L25.7042 15.1238C25.6077 15.1509 25.5321 15.1731 25.7042 15.1263C25.5399 15.178 25.3625 15.1957 25.2039 15.2585C25.154 15.185 25.0836 15.1279 25.0014 15.0942C24.9111 15.0576 24.8119 15.0483 24.7164 15.0675C24.6208 15.0866 24.5329 15.1334 24.4637 15.202C24.3944 15.2706 24.3468 15.358 24.3267 15.4534C24.3066 15.5488 24.315 15.648 24.3507 15.7387C24.4916 16.0332 24.6124 16.3369 24.7122 16.6478C24.7903 17.116 24.9464 17.8538 25.5831 17.6238C25.7018 17.5677 25.7991 17.4746 25.8603 17.3584C25.8492 17.3995 26.1097 17.0828 26.1799 17.0216C26.4596 16.7221 27.0076 16.2456 27.5461 15.7708C27.8275 15.535 28.1179 15.3095 28.4198 15.0991L28.493 15.056C28.5135 15.0441 28.5447 15.0264 28.5751 15.0067C28.6224 14.9728 28.6625 14.9297 28.693 14.8801C28.7235 14.8305 28.7438 14.7754 28.7528 14.7178C28.7618 14.6603 28.7592 14.6016 28.7453 14.545C28.7314 14.4885 28.7063 14.4353 28.6716 14.3885" fill="black"/>
</g>
</g>
</svg>
